<svg width="83" height="83" viewBox="0 0 83 83" fill="none" xmlns="http://www.w3.org/2000/svg">
<circle cx="41.5" cy="41.5" r="41.5" fill="#20A8EB"/>
<path fill-rule="evenodd" clip-rule="evenodd" d="M16 40.9181C16 38.7542 17.7542 37 19.9181 37H42.0819C44.2458 37 46 38.7542 46 40.9181V63.0819C46 65.2458 44.2458 67 42.0819 67C39.9181 67 38.1639 65.2458 38.1639 63.0819V44.8361H19.9181C17.7542 44.8361 16 43.0819 16 40.9181Z" fill="white"/>
<path fill-rule="evenodd" clip-rule="evenodd" d="M68 41.0819C68 43.2458 66.2458 45 64.0819 45H41.9181C39.7542 45 38 43.2458 38 41.0819V18.9181C38 16.7542 39.7542 15 41.9181 15C44.0819 15 45.8361 16.7542 45.8361 18.9181V37.1639H64.0819C66.2458 37.1639 68 38.9181 68 41.0819Z" fill="white"/>
</svg>
