<svg width="31" height="30" viewBox="0 0 31 30" fill="none" xmlns="http://www.w3.org/2000/svg">
<path fill-rule="evenodd" clip-rule="evenodd" d="M1.65385 0C2.2911 0 2.80769 0.559644 2.80769 1.25V27.5H29.3462C29.9834 27.5 30.5 28.0596 30.5 28.75C30.5 29.4404 29.9834 30 29.3462 30H1.65385C1.01659 30 0.5 29.4404 0.5 28.75V1.25C0.5 0.559644 1.01659 0 1.65385 0ZM14.3462 3.75C14.3462 3.05964 14.8627 2.5 15.5 2.5H20.1154C20.7526 2.5 21.2692 3.05964 21.2692 3.75V23.75C21.2692 24.4404 20.7526 25 20.1154 25H15.5C14.8627 25 14.3462 24.4404 14.3462 23.75V3.75ZM16.6538 5V22.5H18.9615V5H16.6538ZM23.5769 8.75C23.5769 8.05964 24.0935 7.5 24.7308 7.5H29.3462C29.9834 7.5 30.5 8.05964 30.5 8.75V23.75C30.5 24.4404 29.9834 25 29.3462 25H24.7308C24.0935 25 23.5769 24.4404 23.5769 23.75V8.75ZM25.8846 10V22.5H28.1923V10H25.8846ZM5.11538 13.75C5.11538 13.0596 5.63198 12.5 6.26923 12.5H10.8846C11.5219 12.5 12.0385 13.0596 12.0385 13.75V23.75C12.0385 24.4404 11.5219 25 10.8846 25H6.26923C5.63198 25 5.11538 24.4404 5.11538 23.75V13.75ZM7.42308 15V22.5H9.73077V15H7.42308Z" fill="#20A8EB"/>
</svg>
