<svg width="43" height="74" viewBox="0 0 43 74" fill="none" xmlns="http://www.w3.org/2000/svg">
<path fill-rule="evenodd" clip-rule="evenodd" d="M2.77049 55.0963C1.24039 53.5662 1.24039 51.0854 2.77049 49.5553L18.4427 33.8831C19.9728 32.353 22.4536 32.353 23.9837 33.8831L39.6559 49.5553C41.186 51.0854 41.186 53.5662 39.6559 55.0963C38.1258 56.6264 35.645 56.6264 34.115 55.0963L21.2132 42.1945L8.31146 55.0963C6.78136 56.6264 4.30058 56.6264 2.77049 55.0963Z" fill="white"/>
<path fill-rule="evenodd" clip-rule="evenodd" d="M39.6563 18.4428C41.1864 19.9729 41.1864 22.4536 39.6563 23.9837L23.984 39.656C22.4539 41.1861 19.9732 41.1861 18.4431 39.656L2.77084 23.9837C1.24074 22.4536 1.24074 19.9729 2.77084 18.4428C4.30093 16.9127 6.78171 16.9127 8.31181 18.4428L21.2136 31.3445L34.1153 18.4428C35.6454 16.9127 38.1262 16.9127 39.6563 18.4428Z" fill="white"/>
</svg>
