<svg width="31" height="30" viewBox="0 0 31 30" fill="none" xmlns="http://www.w3.org/2000/svg">
<path fill-rule="evenodd" clip-rule="evenodd" d="M15.5 9.28571C12.3441 9.28571 9.78571 11.8441 9.78571 15C9.78571 18.1559 12.3441 20.7143 15.5 20.7143C18.6559 20.7143 21.2143 18.1559 21.2143 15C21.2143 11.8441 18.6559 9.28571 15.5 9.28571ZM12.6429 15C12.6429 13.422 13.922 12.1429 15.5 12.1429C17.078 12.1429 18.3571 13.422 18.3571 15C18.3571 16.578 17.078 17.8571 15.5 17.8571C13.922 17.8571 12.6429 16.578 12.6429 15Z" fill="white"/>
<path fill-rule="evenodd" clip-rule="evenodd" d="M11.0556 3.69048C11.0556 1.65228 12.7078 0 14.746 0H16.254C18.2922 0 19.9444 1.65228 19.9444 3.69048V3.86746C20.0399 3.90561 20.1348 3.94496 20.2291 3.98547L20.3543 3.86027C21.7955 2.41905 24.1322 2.41905 25.5734 3.86027L26.6397 4.92655C28.0809 6.36777 28.0809 8.70445 26.6397 10.1457L26.5145 10.2708C26.555 10.3651 26.5944 10.46 26.6325 10.5556H26.8095C28.8477 10.5556 30.5 12.2078 30.5 14.246V15.754C30.5 17.7922 28.8477 19.4444 26.8095 19.4444H26.6325C26.5944 19.54 26.555 19.6349 26.5145 19.7292L26.6396 19.8544C28.0808 21.2956 28.0808 23.6323 26.6396 25.0735L25.5733 26.1398C24.1321 27.581 21.7954 27.581 20.3542 26.1398L20.229 26.0146C20.1348 26.0551 20.0399 26.0944 19.9444 26.1325V26.3095C19.9444 28.3477 18.2922 30 16.254 30H14.746C12.7078 30 11.0556 28.3477 11.0556 26.3095V26.1325C10.96 26.0944 10.8651 26.055 10.7708 26.0145L10.6456 26.1398C9.20437 27.581 6.86769 27.581 5.42647 26.1398L4.3602 25.0735C2.91898 23.6323 2.91898 21.2956 4.3602 19.8544L4.48547 19.7291C4.44496 19.6348 4.40561 19.5399 4.36746 19.4444H4.19048C2.15228 19.4444 0.5 17.7922 0.5 15.754L0.5 14.246C0.5 12.2078 2.15228 10.5556 4.19048 10.5556H4.36746C4.4056 10.4601 4.44493 10.3652 4.48543 10.271L4.36011 10.1457C2.91889 8.70446 2.91889 6.36778 4.36011 4.92656L5.42639 3.86029C6.86761 2.41907 9.20429 2.41907 10.6455 3.86029L10.7708 3.98554C10.8651 3.945 10.96 3.90563 11.0556 3.86746V3.69048ZM14.746 2.85714C14.2858 2.85714 13.9127 3.23024 13.9127 3.69048V4.88156C13.9127 5.51359 13.4974 6.0705 12.8916 6.25078C12.2854 6.43119 11.7054 6.67304 11.1588 6.96926C10.6029 7.2705 9.9151 7.17049 9.46801 6.72341L8.6252 5.8806C8.29977 5.55516 7.77213 5.55516 7.44669 5.8806L6.38042 6.94687C6.05498 7.2723 6.05498 7.79994 6.38042 8.12538L7.22328 8.96824C7.67036 9.41532 7.77038 10.1031 7.46916 10.659C7.17298 11.2056 6.93117 11.7855 6.75078 12.3916C6.5705 12.9974 6.01359 13.4127 5.38156 13.4127H4.19048C3.73024 13.4127 3.35714 13.7858 3.35714 14.246L3.35714 15.754C3.35714 16.2142 3.73024 16.5873 4.19048 16.5873H5.38156C6.01359 16.5873 6.5705 17.0026 6.75078 17.6084C6.93118 18.2145 7.173 18.7945 7.4692 19.3411C7.77042 19.897 7.6704 20.5848 7.22333 21.0318L6.38051 21.8747C6.05507 22.2001 6.05507 22.7277 6.38051 23.0532L7.44678 24.1194C7.77221 24.4449 8.29985 24.4449 8.62529 24.1194L9.46809 23.2766C9.91517 22.8296 10.603 22.7295 11.1589 23.0308C11.7055 23.327 12.2855 23.5688 12.8916 23.7492C13.4974 23.9295 13.9127 24.4864 13.9127 25.1184V26.3095C13.9127 26.7698 14.2858 27.1429 14.746 27.1429H16.254C16.7142 27.1429 17.0873 26.7698 17.0873 26.3095V25.1184C17.0873 24.4864 17.5026 23.9295 18.1084 23.7492C18.7145 23.5688 19.2944 23.327 19.841 23.0308C20.3969 22.7296 21.0847 22.8296 21.5318 23.2767L22.3745 24.1195C22.6999 24.4449 23.2276 24.4449 23.553 24.1195L24.6193 23.0532C24.9447 22.7278 24.9447 22.2001 24.6193 21.8747L23.7766 21.032C23.3295 20.5849 23.2295 19.8971 23.5307 19.3412C23.827 18.7946 24.0688 18.2146 24.2492 17.6084C24.4295 17.0026 24.9864 16.5873 25.6184 16.5873H26.8095C27.2698 16.5873 27.6429 16.2142 27.6429 15.754V14.246C27.6429 13.7858 27.2698 13.4127 26.8095 13.4127H25.6184C24.9864 13.4127 24.4295 12.9974 24.2492 12.3916C24.0688 11.7855 23.827 11.2055 23.5308 10.6589C23.2295 10.103 23.3296 9.41517 23.7766 8.96809L24.6194 8.12536C24.9448 7.79993 24.9448 7.27229 24.6194 6.94685L23.5531 5.88058C23.2277 5.55514 22.7 5.55514 22.3746 5.88058L21.5318 6.72333C21.0848 7.1704 20.397 7.27042 19.8411 6.96919C19.2945 6.673 18.7145 6.43118 18.1084 6.25078C17.5026 6.0705 17.0873 5.51359 17.0873 4.88156V3.69048C17.0873 3.23024 16.7142 2.85714 16.254 2.85714H14.746Z" fill="white"/>
</svg>
