<svg width="31" height="30" viewBox="0 0 31 30" fill="none" xmlns="http://www.w3.org/2000/svg">
<path d="M27.2857 0L3.71429 0C2.8618 0 2.04424 0.338646 1.44144 0.94144C0.838647 1.54423 0.5 2.3618 0.5 3.21428L0.5 18.2142C0.5 19.0667 0.838647 19.8843 1.44144 20.4871C2.04424 21.0899 2.8618 21.4285 3.71429 21.4285H8.63214L11.525 24.3321C11.6251 24.4314 11.7438 24.5099 11.8744 24.5633C12.0049 24.6166 12.1447 24.6436 12.2857 24.6428H14.4286V25.0499L8.58929 27.9749C8.35748 28.1144 8.18702 28.3364 8.11213 28.5964C8.03724 28.8563 8.06347 29.135 8.18554 29.3764C8.3076 29.6179 8.51648 29.8042 8.77024 29.898C9.02399 29.9917 9.30383 29.9861 9.55357 29.8821L14.4286 27.4499V27.8571C14.4286 28.1412 14.5415 28.4138 14.7424 28.6147C14.9433 28.8156 15.2158 28.9285 15.5 28.9285C15.7842 28.9285 16.0567 28.8156 16.2576 28.6147C16.4585 28.4138 16.5714 28.1412 16.5714 27.8571V27.4499L21.4464 29.8821C21.5946 29.9614 21.7605 30.0019 21.9286 29.9999C22.1264 29.9993 22.3203 29.944 22.4886 29.8399C22.6569 29.7359 22.7931 29.5873 22.8821 29.4106C23.0092 29.1576 23.031 28.8646 22.9426 28.5955C22.8543 28.3265 22.6631 28.1034 22.4107 27.9749L16.5714 25.0499V24.6428H18.7143C18.8553 24.6436 18.9951 24.6166 19.1256 24.5633C19.2562 24.5099 19.3749 24.4314 19.475 24.3321L22.3679 21.4285H27.2857C28.1382 21.4285 28.9558 21.0899 29.5586 20.4871C30.1614 19.8843 30.5 19.0667 30.5 18.2142V3.21428C30.5 2.3618 30.1614 1.54423 29.5586 0.94144C28.9558 0.338646 28.1382 0 27.2857 0ZM18.275 22.4999H12.725L11.6536 21.4285H19.3464L18.275 22.4999ZM28.3571 18.2142C28.3571 18.4984 28.2443 18.7709 28.0433 18.9719C27.8424 19.1728 27.5699 19.2857 27.2857 19.2857H3.71429C3.43013 19.2857 3.1576 19.1728 2.95667 18.9719C2.75574 18.7709 2.64286 18.4984 2.64286 18.2142L2.64286 3.21428C2.64286 2.93012 2.75574 2.6576 2.95667 2.45667C3.1576 2.25573 3.43013 2.14285 3.71429 2.14285L27.2857 2.14285C27.5699 2.14285 27.8424 2.25573 28.0433 2.45667C28.2443 2.6576 28.3571 2.93012 28.3571 3.21428V18.2142Z" fill="white"/>
<path d="M23 5.35718L8.00002 5.35718C7.71586 5.35718 7.44334 5.47006 7.2424 5.67099C7.04147 5.87192 6.92859 6.14444 6.92859 6.4286C6.92859 6.71276 7.04147 6.98528 7.2424 7.18622C7.44334 7.38715 7.71586 7.50003 8.00002 7.50003L23 7.50003C23.2842 7.50003 23.5567 7.38715 23.7576 7.18622C23.9586 6.98528 24.0714 6.71276 24.0714 6.4286C24.0714 6.14444 23.9586 5.87192 23.7576 5.67099C23.5567 5.47006 23.2842 5.35718 23 5.35718Z" fill="white"/>
<path d="M8.00002 11.7857H13.3572C13.6413 11.7857 13.9138 11.6728 14.1148 11.4719C14.3157 11.2709 14.4286 10.9984 14.4286 10.7142C14.4286 10.4301 14.3157 10.1576 14.1148 9.95664C13.9138 9.7557 13.6413 9.64282 13.3572 9.64282H8.00002C7.71586 9.64282 7.44334 9.7557 7.2424 9.95664C7.04147 10.1576 6.92859 10.4301 6.92859 10.7142C6.92859 10.9984 7.04147 11.2709 7.2424 11.4719C7.44334 11.6728 7.71586 11.7857 8.00002 11.7857Z" fill="white"/>
<path d="M18.7143 13.9287H8.00002C7.71586 13.9287 7.44334 14.0416 7.2424 14.2425C7.04147 14.4435 6.92859 14.716 6.92859 15.0001C6.92859 15.2843 7.04147 15.5568 7.2424 15.7578C7.44334 15.9587 7.71586 16.0716 8.00002 16.0716H18.7143C18.9985 16.0716 19.271 15.9587 19.4719 15.7578C19.6728 15.5568 19.7857 15.2843 19.7857 15.0001C19.7857 14.716 19.6728 14.4435 19.4719 14.2425C19.271 14.0416 18.9985 13.9287 18.7143 13.9287Z" fill="white"/>
</svg>
