<svg width="60" height="60" viewBox="0 0 60 60" fill="none" xmlns="http://www.w3.org/2000/svg">
<circle cx="30" cy="30" r="30" fill="#20A8EB"/>
<path fill-rule="evenodd" clip-rule="evenodd" d="M19.5301 12.7831C20.1888 12.1244 21.2568 12.1244 21.9155 12.7831L47.2167 38.0843C47.533 38.4006 47.7107 38.8297 47.7107 39.277V46.024C47.7107 46.9556 46.9556 47.7107 46.024 47.7107H39.277C38.8297 47.7107 38.4006 47.533 38.0843 47.2167L12.7831 21.9155C12.4668 21.5992 12.2891 21.1701 12.2891 20.7228C12.2891 20.2754 12.4668 19.8464 12.7831 19.5301L19.5301 12.7831ZM16.3612 20.7228L39.277 43.6386L43.6386 39.277L20.7228 16.3612L16.3612 20.7228Z" fill="white"/>
</svg>
