<svg width="31" height="22" viewBox="0 0 31 22" fill="none" xmlns="http://www.w3.org/2000/svg">
<path fill-rule="evenodd" clip-rule="evenodd" d="M18.9615 1.22222C18.9615 0.547207 19.4781 0 20.1154 0H24.7308C27.917 0 30.5 2.73604 30.5 6.11111V15.8889C30.5 19.264 27.917 22 24.7308 22H20.1154C19.4781 22 18.9615 21.4528 18.9615 20.7778C18.9615 20.1028 19.4781 19.5556 20.1154 19.5556H24.7308C26.6425 19.5556 28.1923 17.9139 28.1923 15.8889V6.11111C28.1923 4.08607 26.6425 2.44444 24.7308 2.44444H20.1154C19.4781 2.44444 18.9615 1.89724 18.9615 1.22222ZM10.0687 2.80242C10.5193 2.32512 11.2499 2.32512 11.7005 2.80242L18.6236 10.1358C19.0742 10.6131 19.0742 11.3869 18.6236 11.8642L11.7005 19.1976C11.2499 19.6749 10.5193 19.6749 10.0687 19.1976C9.61812 18.7203 9.61812 17.9464 10.0687 17.4691L15.0221 12.2222H1.65385C1.01659 12.2222 0.5 11.675 0.5 11C0.5 10.325 1.01659 9.77778 1.65385 9.77778H15.0221L10.0687 4.53091C9.61812 4.0536 9.61812 3.27973 10.0687 2.80242Z" fill="#FF0000"/>
</svg>
