<svg width="31" height="30" viewBox="0 0 31 30" fill="none" xmlns="http://www.w3.org/2000/svg">
<path d="M11.4091 13.6364H8.68182V16.3636H11.4091V13.6364Z" fill="white"/>
<path d="M22.3182 13.6364H19.5909V16.3636H22.3182V13.6364Z" fill="white"/>
<path d="M14.1364 16.3636V13.6364H16.8636V16.3636H14.1364Z" fill="white"/>
<path fill-rule="evenodd" clip-rule="evenodd" d="M0.5 15C0.5 6.71573 7.21573 0 15.5 0C23.7843 0 30.5 6.71573 30.5 15V28.6364C30.5 29.3895 29.8895 30 29.1364 30H15.5C7.21573 30 0.5 23.2843 0.5 15ZM15.5 2.72727C8.72196 2.72727 3.22727 8.22196 3.22727 15C3.22727 21.778 8.72196 27.2727 15.5 27.2727H27.7727V15C27.7727 8.22196 22.278 2.72727 15.5 2.72727Z" fill="white"/>
</svg>
