<svg width="31" height="30" viewBox="0 0 31 30" fill="none" xmlns="http://www.w3.org/2000/svg">
<path d="M10.7273 15.3662C10.7273 14.558 11.3378 13.9028 12.0909 13.9028H18.9091C19.6622 13.9028 20.2727 14.558 20.2727 15.3662C20.2727 16.1744 19.6622 16.8296 18.9091 16.8296H12.0909C11.3378 16.8296 10.7273 16.1744 10.7273 15.3662Z" fill="white"/>
<path d="M10.7273 21.2197C10.7273 20.4115 11.3378 19.7564 12.0909 19.7564H18.9091C19.6622 19.7564 20.2727 20.4115 20.2727 21.2197C20.2727 22.0279 19.6622 22.6831 18.9091 22.6831H12.0909C11.3378 22.6831 10.7273 22.0279 10.7273 21.2197Z" fill="white"/>
<path fill-rule="evenodd" clip-rule="evenodd" d="M2.73665 13.6124L3.2273 13.1736L3.2273 19.8596C3.22725 21.8412 3.22721 23.4752 3.38924 24.7685C3.55934 26.1263 3.9302 27.3254 4.8249 28.2855C5.71959 29.2457 6.83698 29.6437 8.1022 29.8262C9.30732 30.0001 10.83 30.0001 12.6765 30H18.3235C20.17 30.0001 21.6927 30.0001 22.8978 29.8262C24.163 29.6437 25.2804 29.2457 26.1751 28.2855C27.0698 27.3254 27.4407 26.1263 27.6108 24.7685C27.7728 23.4753 27.7727 21.8412 27.7727 19.8596V13.1736L28.2634 13.6124C28.8419 14.1298 29.7018 14.0459 30.1839 13.4251C30.666 12.8042 30.5879 11.8814 30.0093 11.364L20.9353 3.24918C19.8841 2.3091 19 1.51836 18.212 0.974508C17.3762 0.39761 16.5142 0 15.5 0C14.4858 0 13.6238 0.39761 12.788 0.974507C12 1.51836 11.1159 2.30911 10.0647 3.24918L0.990688 11.364C0.412131 11.8814 0.333964 12.8042 0.816098 13.4251C1.29823 14.0459 2.15809 14.1298 2.73665 13.6124ZM14.2632 3.43609C13.634 3.87037 12.879 4.54222 11.7462 5.55526L5.95456 10.7347L5.95457 19.7564C5.95457 21.8673 5.95746 23.3032 6.09218 24.3785C6.22163 25.4118 6.44986 25.8903 6.75337 26.216C7.05687 26.5417 7.50281 26.7866 8.46561 26.9256C9.46763 27.0701 10.8057 27.0732 12.7727 27.0732H18.2273C20.1943 27.0732 21.5324 27.0701 22.5344 26.9256C23.4972 26.7866 23.9431 26.5417 24.2466 26.216C24.5501 25.8903 24.7784 25.4118 24.9078 24.3785C25.0425 23.3032 25.0454 21.8673 25.0454 19.7564L25.0454 10.7347L19.2538 5.55526C18.121 4.54222 17.366 3.87037 16.7368 3.43609C16.1394 3.02376 15.7942 2.92675 15.5 2.92675C15.2058 2.92675 14.8606 3.02376 14.2632 3.43609Z" fill="white"/>
</svg>
