<svg width="60" height="80" viewBox="0 0 60 80" fill="none" xmlns="http://www.w3.org/2000/svg">
<path d="M0 0H58.3206V14.8882H14.9651V64.9777H33.6525C39.8268 64.9777 44.8443 60.0066 44.8443 53.8875C44.8443 47.7627 39.8287 42.7956 33.6525 42.7956L25.1922 42.7959V29.1486C27.8468 28.2556 30.6957 27.7715 33.6533 27.7715C36.6813 27.7715 39.597 28.2802 42.305 29.2146C42.6575 29.3338 43.0044 29.4624 43.3512 29.5985C49.4074 31.9726 54.3602 36.5121 57.2472 42.2529L57.2608 42.2813L57.2727 42.3061L57.2814 42.323L57.323 42.4074C57.386 42.5349 57.4504 42.666 57.5112 42.7956C57.8065 43.416 58.0789 44.0536 58.3209 44.7004C59.4092 47.5587 60 50.655 60 53.8875C60 57.1221 59.4073 60.2185 58.3209 63.0746C58.0789 63.7235 57.8027 64.3627 57.5055 64.9871L57.474 65.0548L57.4563 65.0936L57.4281 65.1535C57.4145 65.181 57.4018 65.209 57.389 65.2368C57.376 65.2648 57.3632 65.2926 57.3499 65.3201C53.6967 72.7386 46.6019 78.188 38.1295 79.6236C36.8548 79.8407 35.5508 79.9663 34.2215 79.9941L34.2058 79.9943C34.0222 79.9981 33.8377 80 33.653 80C33.4684 80 33.2839 79.9981 33.1 79.9943H14.9651V80H0V0Z" fill="white"/>
<path d="M27.8868 42.7958H25.1921V25.9763L37.1634 14.8863H58.322L27.8868 42.7958Z" fill="#20A8EB"/>
</svg>
