<svg width="198" height="60" viewBox="0 0 198 60" fill="none" xmlns="http://www.w3.org/2000/svg">
<path d="M0 5.3252H36.0175V14.5291H9.24211V45.4946H20.7831C24.5962 45.4946 27.6949 42.4214 27.6949 38.6386C27.6949 34.8522 24.5973 31.7816 20.7831 31.7816L15.5582 31.7817V23.3449C17.1976 22.7929 18.957 22.4936 20.7836 22.4936C22.6535 22.4936 24.4543 22.8081 26.1266 23.3857C26.3444 23.4594 26.5586 23.5389 26.7728 23.6231C30.5129 25.0907 33.5717 27.8971 35.3546 31.4461L35.363 31.4636L35.3704 31.4789L35.3758 31.4894L35.4014 31.5416C35.4403 31.6204 35.4801 31.7014 35.5177 31.7816C35.7 32.1651 35.8683 32.5592 36.0177 32.9591C36.6899 34.7261 37.0547 36.6402 37.0547 38.6386C37.0547 40.6382 36.6887 42.5524 36.0177 44.3181C35.8683 44.7192 35.6977 45.1144 35.5142 45.5004L35.4947 45.5423L35.4838 45.5663L35.4663 45.6033C35.458 45.6203 35.4501 45.6376 35.4422 45.6547C35.4341 45.6721 35.4263 45.6893 35.418 45.7063C33.1619 50.2924 28.7803 53.6613 23.5479 54.5488C22.7607 54.6829 21.9554 54.7606 21.1345 54.7778L21.1247 54.7779C21.0114 54.7802 20.8975 54.7814 20.7834 54.7814C20.6693 54.7814 20.5554 54.7802 20.4419 54.7779H9.24211V54.7814H0V5.3252Z" fill="white"/>
<path d="M17.2222 31.7815H15.5581V21.3837L22.9513 14.5278H36.0184L17.2222 31.7815Z" fill="#20A8EB"/>
<path d="M45.6843 14.9898C43.0305 14.9898 40.871 12.8476 40.871 10.213C40.871 7.57968 43.0305 5.43628 45.6843 5.43628C48.3395 5.43628 50.499 7.57851 50.499 10.213C50.499 12.8464 48.3395 14.9898 45.6843 14.9898ZM45.6843 6.477C43.6084 6.477 41.9195 8.15266 41.9195 10.213C41.9195 12.2734 43.6084 13.9491 45.6843 13.9491C47.7605 13.9491 49.4493 12.2734 49.4493 10.213C49.4493 8.15266 47.7605 6.477 45.6843 6.477ZM45.6362 10.772H44.9065V12.4757H43.8308V7.95036H45.5855C46.7683 7.95036 47.6545 8.22516 47.6545 9.34773C47.6545 10.0154 47.2837 10.3966 46.7612 10.5966L47.8874 12.4746H46.6235L45.6362 10.772ZM44.9065 8.8496V9.87276H45.6172C46.1268 9.87276 46.5165 9.79208 46.5165 9.3606C46.5165 8.94315 46.1268 8.84843 45.6172 8.84843L44.9065 8.8496Z" fill="white"/>
<path d="M56 5H54V55H56V5Z" fill="white"/>
<path d="M66.5884 11.6477L66.7873 10.4545H77.3342L77.1353 11.6477H72.5259L70.31 25H68.9819L71.1978 11.6477H66.5884ZM80.4467 25.2273C79.4287 25.2273 78.5883 24.9905 77.9254 24.517C77.2625 24.0388 76.7985 23.3783 76.5334 22.5355C76.2682 21.688 76.228 20.7126 76.4126 19.6094C76.5973 18.5109 76.9619 17.5355 77.5064 16.6832C78.0509 15.8262 78.7232 15.1562 79.5234 14.6733C80.3236 14.1856 81.1925 13.9418 82.13 13.9418C82.7218 13.9418 83.2758 14.0507 83.7919 14.2685C84.308 14.4815 84.746 14.8106 85.1058 15.2557C85.4704 15.696 85.7237 16.2524 85.8658 16.9247C86.0078 17.5923 86.0031 18.383 85.8516 19.2969L85.7521 19.9219H77.2294L77.407 18.8068H84.6442C84.7625 18.1061 84.7294 17.4763 84.5447 16.9176C84.3601 16.3589 84.0452 15.9162 83.6001 15.5895C83.1598 15.258 82.6129 15.0923 81.9595 15.0923C81.2919 15.0923 80.6598 15.2794 80.0632 15.6534C79.4714 16.0275 78.9695 16.5152 78.5575 17.1165C78.1503 17.7131 77.8875 18.3499 77.7692 19.027L77.6271 19.8651C77.4756 20.7884 77.4946 21.5625 77.6839 22.1875C77.8733 22.8078 78.2166 23.2765 78.7138 23.5938C79.2109 23.911 79.8478 24.0696 80.6243 24.0696C81.1451 24.0696 81.6162 23.9891 82.0376 23.8281C82.459 23.6671 82.826 23.4517 83.1385 23.1818C83.451 22.9072 83.7019 22.6065 83.8913 22.2798L85.0206 22.6705C84.7791 23.1297 84.4382 23.5535 83.9979 23.9418C83.5623 24.33 83.0438 24.6425 82.4425 24.8793C81.8459 25.1113 81.1806 25.2273 80.4467 25.2273ZM89.978 14.0909L92.0234 18.7429L95.6172 14.0909H97.0945L92.6626 19.5668L95.2621 25H93.8061L91.7464 20.5043L88.1882 25H86.6967L91.0859 19.5384L88.5291 14.0909H89.978ZM106.279 18.956L106.088 20.1491H99.6673L99.8661 18.956H106.279ZM101.002 14.0909L99.1843 25H97.9201L99.7312 14.0909H101.002ZM108.034 14.0909L106.216 25H104.951L106.762 14.0909H108.034ZM113.87 25.2273C112.914 25.2273 112.109 24.9858 111.455 24.5028C110.802 24.0152 110.34 23.3404 110.07 22.4787C109.8 21.617 109.755 20.6226 109.935 19.4957C110.115 18.3973 110.473 17.4313 111.008 16.598C111.548 15.7599 112.21 15.1089 112.996 14.6449C113.782 14.1761 114.637 13.9418 115.56 13.9418C116.522 13.9418 117.326 14.1856 117.975 14.6733C118.629 15.161 119.09 15.8357 119.36 16.6974C119.635 17.5592 119.682 18.5559 119.502 19.6875C119.322 20.7812 118.962 21.7448 118.423 22.5781C117.883 23.4067 117.22 24.0554 116.434 24.5241C115.653 24.9929 114.798 25.2273 113.87 25.2273ZM113.884 24.0696C114.661 24.0696 115.352 23.8636 115.958 23.4517C116.569 23.035 117.073 22.4811 117.471 21.7898C117.869 21.0937 118.136 20.3291 118.273 19.4957C118.401 18.7003 118.387 17.9688 118.231 17.3011C118.075 16.6335 117.774 16.0985 117.329 15.696C116.884 15.2936 116.292 15.0923 115.553 15.0923C114.781 15.0923 114.09 15.303 113.479 15.7244C112.869 16.1411 112.364 16.6998 111.967 17.4006C111.569 18.0966 111.304 18.8589 111.171 19.6875C111.039 20.4877 111.048 21.2192 111.2 21.8821C111.356 22.545 111.656 23.0753 112.102 23.473C112.551 23.8707 113.146 24.0696 113.884 24.0696ZM120.324 25L120.523 23.8068H120.864C121.252 23.8068 121.577 23.7358 121.837 23.5938C122.102 23.447 122.329 23.2008 122.519 22.8551C122.713 22.5095 122.893 22.0384 123.059 21.4418C123.224 20.8452 123.402 20.0971 123.591 19.1974L124.671 14.0909H131.603L129.784 25H128.513L130.132 15.2841H125.672L124.749 19.6236C124.56 20.509 124.358 21.2879 124.145 21.9602C123.937 22.6326 123.688 23.1937 123.4 23.6435C123.111 24.0933 122.756 24.4318 122.334 24.6591C121.913 24.8864 121.394 25 120.779 25H120.324ZM137.425 25.2273C136.468 25.2273 135.663 24.9858 135.01 24.5028C134.357 24.0152 133.895 23.3404 133.625 22.4787C133.355 21.617 133.31 20.6226 133.49 19.4957C133.67 18.3973 134.027 17.4313 134.562 16.598C135.102 15.7599 135.765 15.1089 136.551 14.6449C137.337 14.1761 138.192 13.9418 139.115 13.9418C140.076 13.9418 140.881 14.1856 141.53 14.6733C142.183 15.161 142.645 15.8357 142.915 16.6974C143.189 17.5592 143.237 18.5559 143.057 19.6875C142.877 20.7812 142.517 21.7448 141.977 22.5781C141.438 23.4067 140.775 24.0554 139.989 24.5241C139.207 24.9929 138.353 25.2273 137.425 25.2273ZM137.439 24.0696C138.215 24.0696 138.907 23.8636 139.513 23.4517C140.124 23.035 140.628 22.4811 141.026 21.7898C141.423 21.0937 141.691 20.3291 141.828 19.4957C141.956 18.7003 141.942 17.9688 141.786 17.3011C141.629 16.6335 141.329 16.0985 140.884 15.696C140.438 15.2936 139.847 15.0923 139.108 15.0923C138.336 15.0923 137.645 15.303 137.034 15.7244C136.423 16.1411 135.919 16.6998 135.521 17.4006C135.124 18.0966 134.858 18.8589 134.726 19.6875C134.593 20.4877 134.603 21.2192 134.754 21.8821C134.911 22.545 135.211 23.0753 135.656 23.473C136.106 23.8707 136.7 24.0696 137.439 24.0696ZM153.254 14.0909L153.055 15.2841H147.835L146.216 25H144.951L146.77 14.0909H153.254ZM155.669 23.2031L162.913 14.0909H164.447L162.629 25H161.365L162.87 15.8878L155.64 25H154.092L155.91 14.0909H157.174L155.669 23.2031ZM167.544 23.2031L174.788 14.0909H176.322L174.504 25H173.24L174.745 15.8878L167.515 25H165.967L167.785 14.0909H169.049L167.544 23.2031ZM190.491 18.1676L190.292 19.3608H184.241L184.44 18.1676H190.491ZM63.198 49L65.0162 38.0909H73.2761L71.4579 49H70.1866L71.8059 39.2841H66.0886L64.4693 49H63.198ZM74.6273 53.0909C74.3764 53.0909 74.1444 53.0672 73.9313 53.0199C73.723 52.9725 73.5596 52.9205 73.4412 52.8636L73.9739 51.7486C74.3716 51.8859 74.7362 51.9285 75.0676 51.8764C75.4038 51.8291 75.7234 51.6681 76.0265 51.3935C76.3295 51.1188 76.6278 50.7093 76.9213 50.1648L77.5179 49.0568L75.3588 38.0909H76.6728L78.3773 47.3523H78.4696L83.2495 38.0909H84.677L77.9654 50.7116C77.6766 51.2562 77.3569 51.7036 77.0066 52.054C76.6609 52.4044 76.2869 52.6648 75.8844 52.8352C75.4867 53.0057 75.0676 53.0909 74.6273 53.0909ZM86.291 39.2841L86.4828 38.0909H95.0055L94.8137 39.2841H91.2058L89.622 49H88.3507L89.9345 39.2841H86.291ZM98.0257 42.3026H101.215C102.436 42.3026 103.331 42.6032 103.899 43.2045C104.472 43.8059 104.676 44.6203 104.51 45.6477C104.396 46.3153 104.148 46.9025 103.764 47.4091C103.381 47.911 102.879 48.3016 102.259 48.581C101.643 48.8603 100.923 49 100.1 49H95.8596L97.6777 38.0909H98.9419L97.3226 47.8068H100.298C101.07 47.8068 101.724 47.6222 102.259 47.2528C102.798 46.8835 103.123 46.3556 103.232 45.669C103.345 44.9683 103.199 44.4309 102.791 44.0568C102.384 43.6828 101.795 43.4957 101.023 43.4957H97.834L98.0257 42.3026ZM112.344 49L114.162 38.0909H115.426L114.602 42.9986H115.774L120.654 38.0909H122.301L117.046 43.3395L120.583 49H118.963L115.994 44.1918H114.418L113.608 49H112.344ZM128.494 53.0909C128.244 53.0909 128.012 53.0672 127.798 53.0199C127.59 52.9725 127.427 52.9205 127.308 52.8636L127.841 51.7486C128.239 51.8859 128.603 51.9285 128.935 51.8764C129.271 51.8291 129.591 51.6681 129.894 51.3935C130.197 51.1188 130.495 50.7093 130.789 50.1648L131.385 49.0568L129.226 38.0909H130.54L132.244 47.3523H132.337L137.117 38.0909H138.544L131.833 50.7116C131.544 51.2562 131.224 51.7036 130.874 52.054C130.528 52.4044 130.154 52.6648 129.752 52.8352C129.354 53.0057 128.935 53.0909 128.494 53.0909ZM143.042 49.2273C142.057 49.2273 141.245 48.9834 140.606 48.4957C139.966 48.008 139.519 47.3404 139.263 46.4929C139.012 45.6406 138.977 44.6747 139.157 43.5952C139.337 42.4967 139.699 41.5237 140.243 40.6761C140.788 39.8239 141.46 39.1562 142.26 38.6733C143.065 38.1856 143.944 37.9418 144.895 37.9418C145.629 37.9418 146.269 38.0838 146.813 38.3679C147.358 38.6473 147.779 39.0426 148.077 39.554C148.376 40.0606 148.518 40.6525 148.503 41.3295H147.225C147.192 40.6998 146.962 40.1695 146.536 39.7386C146.115 39.3078 145.518 39.0923 144.746 39.0923C144.041 39.0923 143.387 39.2817 142.786 39.6605C142.185 40.0346 141.676 40.5578 141.259 41.2301C140.847 41.8977 140.57 42.6719 140.428 43.5526C140.277 44.438 140.291 45.2216 140.471 45.9034C140.651 46.5805 140.973 47.1108 141.437 47.4943C141.905 47.8778 142.497 48.0696 143.212 48.0696C143.7 48.0696 144.159 47.9796 144.59 47.7997C145.021 47.6151 145.402 47.3546 145.733 47.0185C146.065 46.6776 146.318 46.2775 146.493 45.8182H147.772C147.559 46.4811 147.223 47.0682 146.763 47.5795C146.309 48.0909 145.764 48.4934 145.13 48.7869C144.495 49.0805 143.799 49.2273 143.042 49.2273ZM149.956 49L151.774 38.0909H160.034L158.216 49H156.944L158.564 39.2841H152.846L151.227 49H149.956ZM165.945 49.2273C164.927 49.2273 164.086 48.9905 163.423 48.517C162.761 48.0388 162.297 47.3783 162.031 46.5355C161.766 45.688 161.726 44.7126 161.911 43.6094C162.095 42.5109 162.46 41.5355 163.004 40.6832C163.549 39.8262 164.221 39.1562 165.021 38.6733C165.822 38.1856 166.691 37.9418 167.628 37.9418C168.22 37.9418 168.774 38.0507 169.29 38.2685C169.806 38.4815 170.244 38.8106 170.604 39.2557C170.968 39.696 171.222 40.2524 171.364 40.9247C171.506 41.5923 171.501 42.383 171.35 43.2969L171.25 43.9219H162.727L162.905 42.8068H170.142C170.261 42.1061 170.227 41.4763 170.043 40.9176C169.858 40.3589 169.543 39.9162 169.098 39.5895C168.658 39.258 168.111 39.0923 167.458 39.0923C166.79 39.0923 166.158 39.2794 165.561 39.6534C164.969 40.0275 164.468 40.5152 164.056 41.1165C163.648 41.7131 163.386 42.3499 163.267 43.027L163.125 43.8651C162.974 44.7884 162.993 45.5625 163.182 46.1875C163.371 46.8078 163.715 47.2765 164.212 47.5938C164.709 47.911 165.346 48.0696 166.122 48.0696C166.643 48.0696 167.114 47.9891 167.536 47.8281C167.957 47.6671 168.324 47.4517 168.637 47.1818C168.949 46.9072 169.2 46.6065 169.389 46.2798L170.519 46.6705C170.277 47.1297 169.936 47.5535 169.496 47.9418C169.06 48.33 168.542 48.6425 167.941 48.8793C167.344 49.1113 166.679 49.2273 165.945 49.2273ZM175.476 38.0909L177.521 42.7429L181.115 38.0909H182.593L178.161 43.5668L180.76 49H179.304L177.244 44.5043L173.686 49H172.195L176.584 43.5384L174.027 38.0909H175.476ZM183.631 53.0909C183.38 53.0909 183.148 53.0672 182.935 53.0199C182.727 52.9725 182.564 52.9205 182.445 52.8636L182.978 51.7486C183.376 51.8859 183.74 51.9285 184.072 51.8764C184.408 51.8291 184.727 51.6681 185.03 51.3935C185.333 51.1188 185.632 50.7093 185.925 50.1648L186.522 49.0568L184.363 38.0909H185.677L187.381 47.3523H187.474L192.253 38.0909H193.681L186.969 50.7116C186.68 51.2562 186.361 51.7036 186.01 52.054C185.665 52.4044 185.291 52.6648 184.888 52.8352C184.491 53.0057 184.072 53.0909 183.631 53.0909Z" fill="white"/>
</svg>
