<svg width="60" height="60" viewBox="0 0 60 60" fill="none" xmlns="http://www.w3.org/2000/svg">
<rect width="60" height="60" rx="30" fill="#006FB3"/>
<path fill-rule="evenodd" clip-rule="evenodd" d="M29.8641 14.9667C25.814 14.9667 22.5308 18.25 22.5308 22.3C22.5308 26.3501 25.814 29.6334 29.8641 29.6334C33.9142 29.6334 37.1975 26.3501 37.1975 22.3C37.1975 18.25 33.9142 14.9667 29.8641 14.9667ZM36.5393 31.0439C39.1683 29.0338 40.8641 25.865 40.8641 22.3C40.8641 16.2249 35.9393 11.3 29.8641 11.3C23.789 11.3 18.8641 16.2249 18.8641 22.3C18.8641 25.865 20.56 29.0338 23.189 31.0439C21.3456 31.8593 19.6497 33.0133 18.1969 34.4661C17.075 35.588 16.1313 36.8549 15.384 38.2227C14.0052 40.7469 14.5675 43.3205 16.1204 45.1404C17.6153 46.8924 20.01 47.9667 22.5308 47.9667H37.1975C39.7183 47.9667 42.113 46.8924 43.6079 45.1404C45.1608 43.3205 45.7231 40.7469 44.3442 38.2227C43.597 36.8549 42.6533 35.588 41.5314 34.4661C40.0785 33.0133 38.3826 31.8593 36.5393 31.0439ZM29.8641 33.3C26.4605 33.3 23.1963 34.6521 20.7896 37.0588C19.9169 37.9315 19.183 38.9168 18.6019 39.9806C18.0391 41.0108 18.2207 41.953 18.9096 42.7604C19.6565 43.6357 21.0015 44.3 22.5308 44.3H37.1975C38.7268 44.3 40.0718 43.6357 40.8187 42.7604C41.5076 41.953 41.6891 41.0108 41.1264 39.9806C40.5453 38.9168 39.8113 37.9315 38.9387 37.0588C36.532 34.6521 33.2677 33.3 29.8641 33.3Z" fill="white"/>
</svg>
