<svg width="44" height="44" viewBox="0 0 44 44" fill="none" xmlns="http://www.w3.org/2000/svg">
<path fill-rule="evenodd" clip-rule="evenodd" d="M21.8636 6.96671C17.8136 6.96671 14.5303 10.25 14.5303 14.3C14.5303 18.3501 17.8136 21.6334 21.8636 21.6334C25.9137 21.6334 29.197 18.3501 29.197 14.3C29.197 10.25 25.9137 6.96671 21.8636 6.96671ZM28.5388 23.0439C31.1678 21.0338 32.8636 17.865 32.8636 14.3C32.8636 8.22492 27.9388 3.30005 21.8636 3.30005C15.7885 3.30005 10.8636 8.22492 10.8636 14.3C10.8636 17.865 12.5595 21.0338 15.1885 23.0439C13.3451 23.8593 11.6492 25.0133 10.1964 26.4661C9.07451 27.588 8.13078 28.8549 7.38356 30.2227C6.00468 32.7469 6.56701 35.3205 8.11987 37.1404C9.61478 38.8924 12.0095 39.9667 14.5303 39.9667H29.197C31.7178 39.9667 34.1125 38.8924 35.6074 37.1404C37.1603 35.3205 37.7226 32.7469 36.3437 30.2227C35.5965 28.8549 34.6528 27.588 33.5309 26.4661C32.0781 25.0133 30.3822 23.8593 28.5388 23.0439ZM21.8636 25.3C18.46 25.3 15.1958 26.6521 12.7891 29.0588C11.9164 29.9315 11.1825 30.9168 10.6014 31.9806C10.0386 33.0108 10.2202 33.953 10.9091 34.7604C11.656 35.6357 13.001 36.3 14.5303 36.3H29.197C30.7263 36.3 32.0713 35.6357 32.8182 34.7604C33.5071 33.953 33.6887 33.0108 33.1259 31.9806C32.5448 30.9168 31.8109 29.9315 30.9382 29.0588C28.5315 26.6521 25.2673 25.3 21.8636 25.3Z" fill="white"/>
</svg>
